<svg width="20" height="20" viewBox="0 0 20 20" fill="none" xmlns="http://www.w3.org/2000/svg">
<path fill-rule="evenodd" clip-rule="evenodd" d="M7.58031 19.7006C12.9381 21.0365 18.3641 17.7762 19.6996 12.4191L19.6995 12.4191C21.0353 7.06171 17.7752 1.63481 12.4177 0.299238C7.06155 -1.03633 1.63558 2.22419 0.300599 7.58198C-1.03556 12.9387 2.22472 18.365 7.58031 19.7006ZM12.21 6.05191C13.5954 6.52912 14.6086 7.24447 14.4095 8.57525L14.4096 8.57515L14.4099 8.57539C14.2659 9.54955 13.7259 10.0211 13.0089 10.1865C13.9933 10.699 14.4943 11.485 14.017 12.8477C13.4248 14.5402 12.0178 14.6829 10.1467 14.3288L9.69262 16.1487L8.59523 15.8753L9.04341 14.0798C8.75893 14.0091 8.46834 13.9342 8.16891 13.8529L7.71922 15.6568L6.62316 15.3834L7.07724 13.5601C6.97179 13.5331 6.86566 13.5055 6.75877 13.4776C6.6058 13.4377 6.45127 13.3974 6.29489 13.3582L4.86688 13.0022L5.41169 11.7461C5.41169 11.7461 6.22025 11.9611 6.20925 11.9452C6.51992 12.0221 6.65776 11.8195 6.71207 11.6845L7.42966 8.80762C7.45855 8.81454 7.4867 8.82158 7.51377 8.82835C7.52457 8.83106 7.53521 8.83372 7.54565 8.83631C7.50186 8.81872 7.46217 8.80747 7.43157 8.7997L7.94353 6.74605C7.95687 6.51289 7.87651 6.21874 7.43216 6.10783C7.44931 6.09634 6.63518 5.90973 6.63518 5.90973L6.92709 4.7377L8.44034 5.11559L8.43906 5.12126C8.66655 5.17786 8.90102 5.23158 9.13975 5.28593L9.58943 3.48386L10.6861 3.75729L10.2454 5.52407C10.5398 5.59128 10.8361 5.65907 11.1246 5.73102L11.5621 3.97582L12.6594 4.24925L12.21 6.05191ZM8.73902 12.5878C9.63437 12.8243 11.5913 13.3411 11.9024 12.0909H11.9024C12.2212 10.8128 10.3237 10.3869 9.39755 10.1791C9.29397 10.1558 9.20254 10.1353 9.12772 10.1166L8.52514 12.5323C8.58653 12.5475 8.65848 12.5665 8.73902 12.5878ZM9.58331 9.05797C10.3298 9.25718 11.9582 9.69176 12.2418 8.5555H12.2419C12.5314 7.39338 10.9489 7.04302 10.176 6.8719C10.0891 6.85265 10.0124 6.83566 9.94972 6.82005L9.4034 9.01086C9.45498 9.02372 9.51551 9.03987 9.58331 9.05797Z" fill="#F79E1B"/>
</svg>
