<svg width="20" height="20" viewBox="0 0 20 20" fill="none" xmlns="http://www.w3.org/2000/svg">
<path fill-rule="evenodd" clip-rule="evenodd" d="M10 20C15.5417 20 20 15.5417 20 10C20 4.4583 15.5417 0 10 0C4.4583 0 0 4.4583 0 10C0 15.5417 4.4583 20 10 20ZM12.75 11.5833C12.75 10.125 11.875 9.62501 10.125 9.41671C8.87499 9.25001 8.62499 8.91671 8.62499 8.33331C8.62499 7.74991 9.04169 7.375 9.87499 7.375C10.625 7.375 11.0417 7.62501 11.25 8.25001C11.2917 8.37501 11.4167 8.45831 11.5417 8.45831H12.2083C12.375 8.45831 12.5 8.33331 12.5 8.16671V8.12501C12.3333 7.2083 11.5833 6.5 10.625 6.4167V5.4167C10.625 5.25 10.5 5.125 10.2917 5.0833H9.66669C9.49999 5.0833 9.37499 5.2083 9.33329 5.4167V6.375C8.08329 6.5417 7.29169 7.375 7.29169 8.41671C7.29169 9.79171 8.12499 10.3333 9.87499 10.5417C11.0417 10.75 11.4167 11 11.4167 11.6667C11.4167 12.3334 10.8333 12.7917 10.0417 12.7917C8.95829 12.7917 8.58329 12.3333 8.45829 11.7083C8.41669 11.5417 8.29169 11.4583 8.16669 11.4583H7.45829C7.29169 11.4583 7.16669 11.5833 7.16669 11.75V11.7917C7.33329 12.8333 7.99999 13.5833 9.37499 13.7917V14.7917C9.37499 14.9583 9.49999 15.0833 9.70829 15.125H10.3333C10.5 15.125 10.625 15 10.6667 14.7917V13.7917C11.9167 13.5833 12.75 12.7083 12.75 11.5833ZM4.16672 7.95833C2.95832 11.1668 4.62503 14.7918 7.87504 15.9584C8.00004 16.0418 8.12504 16.2084 8.12504 16.3334V16.9168C8.12504 17.0001 8.12504 17.0418 8.08334 17.0834C8.04174 17.2501 7.87504 17.3334 7.70833 17.2501C5.37503 16.5001 3.58332 14.7084 2.83332 12.3751C1.58332 8.41674 3.75002 4.20831 7.70833 2.9583C7.75004 2.9167 7.83334 2.9167 7.87504 2.9167C8.04174 2.9583 8.12504 3.0833 8.12504 3.25V3.83331C8.12504 4.04171 8.04174 4.16671 7.87504 4.25001C6.16673 4.87501 4.79173 6.20832 4.16672 7.95833ZM11.9167 3.125C11.9583 2.9583 12.125 2.875 12.2917 2.9583C14.5834 3.70831 16.4168 5.50002 17.1668 7.87503C18.4168 11.8334 16.2501 16.0418 12.2917 17.2918C12.25 17.3334 12.1667 17.3334 12.125 17.3334C11.9583 17.2918 11.875 17.1668 11.875 17.0001V16.4168C11.875 16.2084 11.9583 16.0834 12.125 16.0001C13.8334 15.3751 15.2084 14.0418 15.8334 12.2918C17.0418 9.08334 15.3751 5.45832 12.125 4.29171C12 4.20831 11.875 4.04171 11.875 3.87501V3.2917C11.875 3.2083 11.875 3.1667 11.9167 3.125Z" fill="#2775CA"/>
</svg>
