<svg width="20" height="20" viewBox="0 0 20 20" fill="none" xmlns="http://www.w3.org/2000/svg">
<path fill-rule="evenodd" clip-rule="evenodd" d="M20 10C20 4.47754 15.5234 0 10 0C4.47754 0 0 4.47754 0 10C0 15.5229 4.47754 20 10 20C15.5234 20 20 15.5234 20 10ZM13.5069 10.5569H10.5169H7.58563C7.52583 10.5569 7.49636 10.5569 7.48183 10.5421C7.46772 10.5278 7.46772 10.4996 7.46772 10.4439V9.56859C7.46772 9.49954 7.48755 9.47511 7.5612 9.47511H13.5118C13.5759 9.47511 13.6053 9.49954 13.6053 9.55868C13.6297 9.8632 13.6297 10.1691 13.6053 10.4733C13.6007 10.5569 13.5706 10.5569 13.5069 10.5569ZM13.2714 8.38343C13.2799 8.40538 13.2799 8.42981 13.2714 8.45212H13.2951C13.2852 8.48151 13.236 8.49143 13.236 8.49143H7.56084C7.46736 8.49143 7.46736 8.4716 7.46736 8.39794V6.65224C7.46736 6.58815 7.47728 6.55876 7.55093 6.55876H10.1918C10.4729 6.55628 10.7534 6.58567 11.0278 6.64728C11.5717 6.77617 12.0777 7.03254 12.5033 7.39478C12.5883 7.45817 12.6641 7.53288 12.7296 7.61609C12.8684 7.75384 12.9902 7.90716 13.0936 8.07359C13.1623 8.17097 13.2215 8.27472 13.2714 8.38343ZM13.02 11.5799C13.1035 11.5707 13.1878 11.5707 13.2714 11.5799V11.5806C13.31 11.6001 13.2756 11.6744 13.2756 11.6744C12.9732 12.2665 12.4938 12.7487 11.9035 13.0558H11.8692C11.7555 13.1234 11.6351 13.1797 11.5105 13.2229C11.1677 13.3535 10.8083 13.4329 10.4429 13.4591C10.3249 13.4842 10.2045 13.4927 10.0841 13.4835H7.56616C7.46772 13.4835 7.46772 13.4637 7.46772 13.3851V11.6783C7.46772 11.5799 7.4925 11.5799 7.56616 11.5799H13.02ZM6.47943 14.339V14.3684L6.47801 14.3695V14.3744H9.89117C10.2775 14.3797 10.6624 14.3489 11.042 14.2809C11.4418 14.2027 11.8313 14.0795 12.2027 13.9123C12.3638 13.8377 12.5183 13.7476 12.6742 13.6566C12.7137 13.6336 12.7532 13.6105 12.793 13.5876C12.9764 13.4569 13.1521 13.3153 13.3192 13.1648C13.7767 12.7512 14.1308 12.2353 14.3521 11.6599C14.367 11.5955 14.43 11.554 14.4948 11.5664H15.4243C15.4983 11.5664 15.5227 11.5416 15.5227 11.4581V10.8628C15.5277 10.8058 15.5277 10.7481 15.5227 10.6911C15.5227 10.6762 15.5266 10.6613 15.5304 10.6465C15.538 10.6169 15.5456 10.5874 15.5227 10.5579H14.7462C14.6524 10.5579 14.6524 10.548 14.6524 10.4645C14.6793 10.1649 14.6793 9.86426 14.6524 9.5647C14.6474 9.47617 14.6672 9.47617 14.7359 9.47617H15.4147C15.4937 9.47617 15.5231 9.45634 15.5231 9.37773V8.5711C15.5181 8.46274 15.5181 8.46274 15.4052 8.46274H14.5249C14.4562 8.47443 14.3903 8.42804 14.3779 8.35935C14.277 8.09554 14.1485 7.84307 13.9937 7.60689C13.8379 7.37389 13.6623 7.15506 13.4676 6.95287C13.2087 6.69438 12.918 6.46988 12.6021 6.28398C12.1259 6.00743 11.605 5.81373 11.0629 5.71352C10.7998 5.66501 10.5339 5.63562 10.2662 5.625H6.57787C6.47943 5.625 6.47943 5.64483 6.47943 5.72344V8.37422C6.47943 8.4677 6.4596 8.4677 6.38595 8.4677H5.32861C5.25 8.4677 5.25 8.48222 5.25 8.5364V9.40181C5.25 9.48042 5.27443 9.48042 5.33357 9.48042H6.40082C6.47943 9.48042 6.47943 9.49494 6.47943 9.55407V10.4786C6.47943 10.5622 6.45464 10.5622 6.3909 10.5622H5.25V11.4967C5.25 11.5753 5.27443 11.5753 5.33357 11.5753H6.40082C6.47943 11.5753 6.47943 11.5848 6.47943 11.6489V12.8047V13.1931V14.339Z" fill="#F5AC37"/>
</svg>
