<svg width="20" height="21" viewBox="0 0 20 21" fill="none" xmlns="http://www.w3.org/2000/svg">
<path fill-rule="evenodd" clip-rule="evenodd" d="M7.58005 19.9132C12.9385 21.2491 18.3651 17.9888 19.7008 12.6316C21.0367 7.27417 17.7761 1.84737 12.418 0.511793C7.06124 -0.823779 1.63466 2.43675 0.299519 7.79453C-1.03679 13.1513 2.22386 18.5776 7.58005 19.9132ZM10.8094 16.4977H9.38427V15.1477C7.80909 15.0127 6.65396 14.4127 5.84387 13.5877L6.999 11.9677C7.55406 12.5527 8.36415 13.0777 9.38427 13.2577V10.8877C7.83909 10.4977 6.1589 9.92771 6.1589 7.88771C6.1589 6.37271 7.35904 5.08271 9.38427 4.87271V3.47771H10.8094V4.90271C12.0246 5.03771 13.0447 5.50271 13.8548 6.23771L12.6696 7.79771C12.1296 7.30271 11.4845 6.98771 10.8094 6.82271V8.93771C12.3546 9.32771 14.0798 9.92771 14.0798 11.9677C14.0798 13.6327 12.9997 14.9077 10.8094 15.1327V16.4977ZM10.8094 13.2577C11.5445 13.1077 11.9196 12.6727 11.9196 12.2077C11.9196 11.7127 11.4545 11.4577 10.8094 11.2477V13.2577ZM9.38427 6.73271C8.70919 6.82271 8.33415 7.19771 8.33415 7.70771C8.33415 8.14271 8.7542 8.38271 9.38427 8.56271V6.73271Z" fill="#75AADB"/>
</svg>
