<svg width="20" height="20" viewBox="0 0 20 20" fill="none" xmlns="http://www.w3.org/2000/svg">
<path d="M10.8082 13.26C11.5432 13.11 11.9182 12.675 11.9182 12.21C11.9182 11.715 11.4532 11.46 10.8082 11.25V13.26Z" fill="#75AADB"/>
<path d="M9.3832 6.73499C8.7082 6.82499 8.3332 7.19999 8.3332 7.70999C8.3332 8.14499 8.7532 8.38499 9.3832 8.56499V6.73499Z" fill="#75AADB"/>
<path fill-rule="evenodd" clip-rule="evenodd" d="M10 20C15.5229 20 20 15.5228 20 10C20 4.47715 15.5229 0 10 0C4.47715 0 0 4.47715 0 10C0 15.5228 4.47715 20 10 20ZM10.8082 16.5H9.3832V15.15C7.8082 15.015 6.6532 14.415 5.8432 13.59L6.9982 11.97C7.5532 12.555 8.3632 13.08 9.3832 13.26V10.89C7.8382 10.5 6.1582 9.92999 6.1582 7.88999C6.1582 6.37499 7.3582 5.08499 9.3832 4.87499V3.47999H10.8082V4.90499C12.0232 5.03999 13.0432 5.50499 13.8532 6.23999L12.6682 7.79999C12.1282 7.30499 11.4832 6.98999 10.8082 6.82499V8.93999C12.3532 9.32999 14.0782 9.92999 14.0782 11.97C14.0782 13.635 12.9982 14.91 10.8082 15.135V16.5Z" fill="#75AADB"/>
</svg>
