<svg width="20" height="20" viewBox="0 0 20 20" fill="none" xmlns="http://www.w3.org/2000/svg">
<path fill-rule="evenodd" clip-rule="evenodd" d="M20 10C20 15.5228 15.5228 20 10 20C4.47715 20 0 15.5228 0 10C0 4.47715 4.47715 0 10 0C15.5228 0 20 4.47715 20 10ZM11.0659 10.9212V10.9228V10.9244C13.5016 10.8151 15.3199 10.3907 15.3199 9.88263C15.3199 9.37459 13.5032 8.95015 11.0659 8.84083V10.5C10.9952 10.5064 10.6158 10.5386 9.85692 10.5386C9.22509 10.5386 8.76689 10.5112 8.60772 10.5V8.83922C6.16721 8.94694 4.34406 9.37298 4.34406 9.88102C4.34406 10.3907 6.1656 10.8151 8.60772 10.9228V10.9212C8.76528 10.9293 9.21062 10.9469 9.84566 10.9469C10.6399 10.9469 10.9968 10.926 11.0659 10.9212ZM11.0659 7.18327V8.6688L11.0675 8.67041C13.8264 8.79742 15.9003 9.34565 15.9003 9.99999C15.9003 10.6559 13.8264 11.2026 11.0675 11.3296V16.0916H8.60933V11.3296C5.84727 11.201 3.76849 10.6543 3.76849 9.99839C3.76849 9.34244 5.84566 8.79581 8.60933 8.6688V7.18327H5.20901V4.918H14.4662V7.18327H11.0659Z" fill="#26A17B"/>
</svg>
