<svg width="20" height="20" viewBox="0 0 20 20" fill="none" xmlns="http://www.w3.org/2000/svg">
<path d="M19.6997 12.4191C18.3641 17.7762 12.9382 21.0365 7.58032 19.7006C2.22474 18.365 -1.03554 12.9387 0.300614 7.58198C1.6356 2.22419 7.06157 -1.03633 12.4177 0.299238C17.7752 1.63481 21.0353 7.06171 19.6995 12.4191L19.6996 12.4191H19.6997Z" fill="white"/>
<path d="M9.99844 3.13047L5.78201 10.1274L9.99844 8.21096V3.13047Z" fill="#8A92B2"/>
<path d="M9.99844 8.21093L5.78201 10.1273L9.99844 12.6203V8.21093Z" fill="#62688F"/>
<path d="M14.2157 10.1274L9.99844 3.13047V8.21096L14.2157 10.1274Z" fill="#62688F"/>
<path d="M9.99844 12.6203L14.2157 10.1273L9.99844 8.21093V12.6203Z" fill="#454A75"/>
<path d="M5.78201 10.9273L9.99844 16.8695V13.4187L5.78201 10.9273Z" fill="#8A92B2"/>
<path d="M9.99844 13.4187V16.8695L14.2179 10.9273L9.99844 13.4187Z" fill="#62688F"/>
</svg>
